# xmcd
#
# Track frame offsets:
#	150
#	20182
#	48991
#	72817
#	87232
#	110541
#	138966
#	162371
#	177364
#	195769
#	213893
#	236518
#	251107
#
# Disc length: 3653 seconds
#
# Revision: 5
# Processed by: cddbd v1.5.2PL0 Copyright (c) Steve Scherf et al.
# Submitted via: EasyCDDAExtractor 2010.6.0.0
#
DISCID=ae0e430d
DTITLE=Carlos A. Moyses - Voz De Ouro Volume 1
DYEAR=2007
DGENRE=Gospel
TTITLE0=Escudo
TTITLE1=Projeto No Deserto
TTITLE2=Sou Um Milagre
TTITLE3=Desejo De Vida
TTITLE4=O Espelho
TTITLE5=Quando Deus Se Cala
TTITLE6=Terra Do Pao
TTITLE7=Lute
TTITLE8=Coracao De Cera
TTITLE9=Alem Do Rio Azul
TTITLE10=Pra Nunca Mais Chorar
TTITLE11=Sabedoria De Deus
TTITLE12=Chave Da Vitoria
EXTD=arisa è linda!!!!!!!!!!!!!
EXTT0=
EXTT1=
EXTT2=
EXTT3=
EXTT4=
EXTT5=
EXTT6=
EXTT7=
EXTT8=
EXTT9=
EXTT10=
EXTT11=
EXTT12=
PLAYORDER=
